<?xml version="1.0" standalone="no"?>
<!DOCTYPE svg PUBLIC "-//W3C//DTD SVG 20010904//EN"
 "http://www.w3.org/TR/2001/REC-SVG-20010904/DTD/svg10.dtd">
<svg version="1.0" xmlns="http://www.w3.org/2000/svg"
 width="300.000000pt" height="300.000000pt" viewBox="0 0 300.000000 300.000000"
 preserveAspectRatio="xMidYMid meet">
<metadata>
Created by potrace 1.10, written by Peter Selinger 2001-2011
</metadata>
<g transform="translate(0.000000,300.000000) scale(0.100000,-0.100000)"
fill="#000000" stroke="none">
<path d="M910 1905 c0 -166 4 -295 9 -295 17 0 20 45 22 300 1 140 3 260 5
265 4 10 1092 10 1102 0 3 -3 7 -65 8 -138 2 -166 2 -167 14 -167 6 0 10 62
10 165 l0 165 -585 0 -585 0 0 -295z"/>
<path d="M1183 1884 c-6 -3 -71 -74 -142 -159 l-131 -154 0 -160 0 -161 585 0
586 0 -1 305 -1 305 -55 0 c-31 0 -63 -4 -73 -9 -9 -5 -46 -44 -80 -85 -35
-42 -67 -76 -70 -76 -4 0 -40 40 -81 89 -82 97 -110 117 -140 101 -11 -6 -55
-53 -98 -104 l-79 -94 -84 99 c-46 54 -87 99 -90 99 -4 0 -13 2 -21 4 -7 3
-18 2 -25 0z m88 -80 c53 -69 120 -134 136 -134 6 0 31 22 54 50 23 27 46 47
50 44 5 -3 6 2 3 10 -4 11 0 16 10 16 9 0 15 3 14 8 -2 4 1 8 6 9 5 1 14 12
20 25 6 12 20 24 30 26 20 4 76 -44 76 -65 0 -8 4 -12 9 -9 9 6 26 -22 23 -37
-1 -4 2 -6 6 -5 4 2 23 -14 41 -34 36 -41 64 -48 80 -20 9 15 12 15 21 2 8
-12 10 -10 8 10 -2 16 2 24 10 22 8 -1 11 2 8 6 -3 5 6 18 19 28 14 10 25 24
25 30 0 17 32 42 63 49 49 13 38 -13 -51 -114 -26 -30 -62 -71 -81 -93 -22
-26 -41 -38 -54 -36 -11 2 -55 44 -97 93 -42 50 -84 91 -93 93 -18 4 -80 -56
-140 -135 -51 -68 -72 -69 -123 -6 -22 27 -62 72 -89 101 l-51 54 -58 -64
c-32 -34 -72 -78 -88 -95 -18 -20 -39 -33 -54 -33 -27 0 -28 3 -13 31 5 11 15
16 21 13 7 -5 8 -2 4 5 -9 14 22 53 36 45 4 -3 8 -2 7 3 -4 16 13 43 27 43 8
0 14 7 14 15 0 7 6 18 13 22 8 4 22 21 32 36 17 27 45 45 71 46 6 1 31 -24 55
-55z m794 19 c-4 -10 -9 -135 -11 -278 -1 -143 -3 -263 -3 -267 -1 -4 -251 -7
-556 -6 l-555 1 -1 36 c0 20 -2 89 -4 154 l-3 117 57 0 57 0 79 95 c44 52 82
91 85 87 158 -190 176 -206 211 -193 9 3 54 49 99 102 l82 97 77 -92 c83 -97
114 -121 142 -106 9 6 67 68 129 140 61 71 114 130 117 130 3 0 2 -8 -2 -17z"/>
<path d="M1170 1636 c0 -32 2 -34 35 -34 33 0 35 2 35 34 0 32 -2 34 -35 34
-33 0 -35 -2 -35 -34z"/>
<path d="M902 944 c4 -50 3 -53 -12 -39 -23 20 -53 19 -81 -4 -31 -25 -34
-108 -5 -140 21 -23 65 -28 85 -8 11 10 14 10 18 0 3 -7 13 -13 24 -13 18 0
19 9 19 129 l0 129 -26 0 c-26 0 -26 -2 -22 -54z m-18 -70 c24 -23 21 -81 -5
-94 -29 -16 -49 4 -49 51 0 32 14 55 37 59 1 0 9 -7 17 -16z"/>
<path d="M1400 948 c0 -45 -1 -48 -19 -38 -57 30 -101 -5 -101 -80 0 -37 5
-55 20 -70 22 -22 69 -27 88 -8 9 9 12 9 12 0 0 -7 9 -12 20 -12 19 0 20 7 20
129 0 124 -1 130 -20 128 -17 -1 -20 -8 -20 -49z m-10 -91 c13 -24 13 -30 0
-54 -19 -33 -33 -38 -54 -18 -21 21 -21 63 1 87 21 23 34 19 53 -15z"/>
<path d="M385 983 c-75 -16 -105 -51 -105 -122 0 -31 7 -49 29 -73 24 -27 36
-32 90 -36 56 -4 61 -3 61 16 0 17 -6 20 -47 19 -57 0 -83 26 -83 83 0 52 38
84 93 77 31 -4 37 -2 37 14 0 10 -6 19 -14 19 -8 0 -20 2 -28 4 -7 2 -22 2
-33 -1z"/>
<path d="M685 980 c-18 -3 -31 -12 -33 -24 -3 -16 1 -17 30 -11 39 9 41 10 36
27 -2 9 -13 12 -33 8z"/>
<path d="M1000 965 c0 -20 5 -25 25 -25 20 0 25 5 25 25 0 20 -5 25 -25 25
-20 0 -25 -5 -25 -25z"/>
<path d="M1846 979 c-102 -17 -127 -167 -36 -214 40 -20 125 -17 125 5 0 11
-12 15 -44 16 -35 0 -49 6 -67 28 -28 31 -30 56 -9 96 17 34 44 44 91 35 29
-5 34 -3 34 13 0 23 -35 31 -94 21z"/>
<path d="M1080 877 c0 -111 12 -137 66 -137 27 0 34 4 34 20 0 15 -6 19 -22
17 -21 -2 -23 3 -26 56 -3 52 -1 57 18 57 13 0 20 7 20 19 0 14 -5 18 -20 14
-16 -4 -20 0 -20 21 0 21 -5 26 -25 26 -25 0 -25 0 -25 -93z"/>
<path d="M1000 838 c0 -87 0 -88 25 -88 25 0 25 1 25 88 0 86 0 87 -25 87 -25
0 -25 -1 -25 -87z"/>
<path d="M490 835 c0 -78 2 -85 20 -85 17 0 20 7 20 46 0 55 14 84 40 84 13 0
20 7 20 20 0 28 -33 26 -54 -2 l-17 -23 6 23 c5 17 2 22 -14 22 -20 0 -21 -6
-21 -85z"/>
<path d="M625 895 c-35 -34 -35 -96 0 -130 37 -37 125 -33 125 5 0 16 -4 17
-35 7 -29 -9 -38 -7 -55 8 -32 29 -24 35 40 35 56 0 60 1 60 24 0 68 -86 101
-135 51z m83 -17 c21 -21 13 -28 -28 -28 -22 0 -40 4 -40 8 0 14 23 32 40 32
9 0 21 -5 28 -12z"/>
<path d="M1965 895 c-56 -56 -18 -155 60 -155 93 0 130 132 48 169 -40 18 -82
13 -108 -14z m86 -15 c24 -13 26 -72 3 -94 -18 -19 -20 -19 -44 -6 -26 14 -34
57 -15 86 17 27 27 29 56 14z"/>
<path d="M2150 835 c0 -78 2 -85 20 -85 18 0 20 7 20 54 0 36 5 60 16 70 33
34 54 8 54 -66 0 -51 2 -58 20 -58 18 0 20 7 20 69 0 50 -4 74 -16 85 -18 19
-65 21 -82 4 -9 -9 -12 -9 -12 0 0 7 -9 12 -20 12 -18 0 -20 -7 -20 -85z"/>
<path d="M2361 894 c-31 -40 -24 -112 13 -136 17 -12 61 -9 74 4 9 9 12 7 12
-9 0 -31 -25 -46 -65 -40 -30 5 -35 3 -35 -14 0 -16 7 -19 50 -19 76 0 90 19
90 124 0 46 3 91 6 100 5 12 0 16 -21 16 -15 0 -24 -4 -20 -10 3 -5 2 -10 -4
-10 -5 0 -13 5 -16 10 -13 20 -63 11 -84 -16z m88 -18 c17 -20 10 -77 -11 -90
-37 -23 -69 52 -38 89 16 19 34 19 49 1z"/>
<path d="M2569 891 c-20 -20 -29 -39 -29 -61 0 -45 47 -90 95 -90 51 0 85 36
85 90 0 85 -90 121 -151 61z m95 -23 c21 -30 20 -54 -4 -78 -24 -24 -34 -25
-54 -4 -31 31 -11 104 29 104 8 0 21 -10 29 -22z"/>
<path d="M1490 841 c0 -92 31 -123 91 -91 13 7 19 7 19 0 0 -5 9 -10 20 -10
18 0 20 7 20 85 0 78 -2 85 -20 85 -18 0 -20 -7 -20 -54 0 -36 -5 -60 -16 -70
-33 -34 -54 -8 -54 66 0 51 -2 58 -20 58 -18 0 -20 -7 -20 -69z"/>
</g>
</svg>
